# xmcd
#
# Track frame offsets: 
#        150
#        22644
#        34255
#        70050
#        116287
#        132475
#        137260
#        152310
#        165027
#        177002
#        183717
#        190652
#        203185
#        214227
#        224012
#        231777
#
# Disc length: 3305 seconds
#
# Revision: 0
# Processed by: cddbd v1.5.2PL0 Copyright (c) Steve Scherf et al.
# Submitted via: ExactAudioCopy v0.99pb5
#
DISCID=d00ce710
DTITLE=Led Zeppelin  - Lost Mixes EP Vol 05
DYEAR=1900
DGENRE=
TTITLE0=Sugar Baby T1&2
TTITLE1=Wanton Song T1&2
TTITLE2=The Rover T1&2
TTITLE3=Night Flight T1&2
TTITLE4=School Days
TTITLE5=Nadine
TTITLE6=Round and Round
TTITLE7=Move On Down The Line
TTITLE8=Love Me Like  A Hurricane
TTITLE9=Move It
TTITLE10=Dynamite
TTITLE11=Shakin All Over
TTITLE12=Hungry For Love
TTITLE13=I'll Never Get Over You
TTITLE14=Reelin' and Rockin'
TTITLE15=Surrender
EXTD=
EXTT0=
EXTT1=
EXTT2=
EXTT3=
EXTT4=
EXTT5=
EXTT6=
EXTT7=
EXTT8=
EXTT9=
EXTT10=
EXTT11=
EXTT12=
EXTT13=
EXTT14=
EXTT15=
PLAYORDER=
